<?xml version="1.0" standalone="no"?><!DOCTYPE svg PUBLIC "-//W3C//DTD SVG 1.1//EN" "http://www.w3.org/Graphics/SVG/1.1/DTD/svg11.dtd"><svg width="128" height="128" version="1.1" xmlns="http://www.w3.org/2000/svg" xmlns:xlink="http://www.w3.org/1999/xlink"><defs xmlns="http://www.w3.org/1999/xhtml"><style type="text/css"><![CDATA[]]></style></defs><g transform="translate(0,0)"><g transform="translate(0,108)" fill="none" font-size="10" font-family="sans-serif" text-anchor="middle"><path class="domain" stroke="#000" d="M0.5,6V0.5H128.5V6"/><g class="tick" opacity="1" transform="translate(0.5,0)"><line stroke="#000" y2="6"/><text fill="#000" y="9" dy="0.71em">2016</text></g><g class="tick" opacity="1" transform="translate(51.714012041598245,0)"><line stroke="#000" y2="6"/><text fill="#000" y="9" dy="0.71em">2018</text></g><g class="tick" opacity="1" transform="translate(102.85796387520526,0)"><line stroke="#000" y2="6"/><text fill="#000" y="9" dy="0.71em">2020</text></g></g><g fill="none" font-size="10" font-family="sans-serif" text-anchor="end"><path class="domain" stroke="#000" d="M-6,128.5H0.5V0.5H-6"/><g class="tick" opacity="1" transform="translate(0,128.5)"><line stroke="#000" x2="-6"/><text fill="#000" x="-9" dy="0.32em">0.0</text></g><g class="tick" opacity="1" transform="translate(0,102.9)"><line stroke="#000" x2="-6"/><text fill="#000" x="-9" dy="0.32em">0.2</text></g><g class="tick" opacity="1" transform="translate(0,77.3)"><line stroke="#000" x2="-6"/><text fill="#000" x="-9" dy="0.32em">0.4</text></g><g class="tick" opacity="1" transform="translate(0,51.7)"><line stroke="#000" x2="-6"/><text fill="#000" x="-9" dy="0.32em">0.6</text></g><g class="tick" opacity="1" transform="translate(0,26.099999999999994)"><line stroke="#000" x2="-6"/><text fill="#000" x="-9" dy="0.32em">0.8</text></g><g class="tick" opacity="1" transform="translate(0,0.5)"><line stroke="#000" x2="-6"/><text fill="#000" x="-9" dy="0.32em">1.0</text></g></g><path fill="none" stroke="#d95f02" stroke-width="5" d="M0,49.087378640776706L25.642036124794746,2.4854368932038398L51.214012041598245,42.25242718446604L76.78598795840175,27.961165048543748L102.35796387520526,0L128,29.82524271844659"/><path fill="none" stroke="#7570b3" stroke-width="5" d="M0,31.43116189577907L25.642036124794746,23.087741136415744L51.214012041598245,24.8813921372887L76.78598795840175,18.737513855561986L102.35796387520526,14.220522756945158L128,0"/></g></svg>