<?xml version="1.0" standalone="no"?><!DOCTYPE svg PUBLIC "-//W3C//DTD SVG 1.1//EN" "http://www.w3.org/Graphics/SVG/1.1/DTD/svg11.dtd"><svg width="128" height="128" version="1.1" xmlns="http://www.w3.org/2000/svg" xmlns:xlink="http://www.w3.org/1999/xlink"><defs xmlns="http://www.w3.org/1999/xhtml"><style type="text/css"><![CDATA[]]></style></defs><g transform="translate(5,0)"><g transform="translate(0,109)" fill="none" font-size="10" font-family="sans-serif" text-anchor="middle"><path class="domain" stroke="#000" d="M0.5,6V0.5H123.5V6"/><g class="tick" opacity="1" transform="translate(0.5,0)"><line stroke="#000" y2="6"/><text fill="#000" y="9" dy="0.71em"/></g><g class="tick" opacity="1" transform="translate(25.14039408866995,0)"><line stroke="#000" y2="6"/><text fill="#000" y="9" dy="0.71em"/></g><g class="tick" opacity="1" transform="translate(49.71346469622331,0)"><line stroke="#000" y2="6"/><text fill="#000" y="9" dy="0.71em"/></g><g class="tick" opacity="1" transform="translate(74.28653530377667,0)"><line stroke="#000" y2="6"/><text fill="#000" y="9" dy="0.71em"/></g><g class="tick" opacity="1" transform="translate(98.85960591133005,0)"><line stroke="#000" y2="6"/><text fill="#000" y="9" dy="0.71em"/></g><g class="tick" opacity="1" transform="translate(123.5,0)"><line stroke="#000" y2="6"/><text fill="#000" y="9" dy="0.71em"/></g></g><g transform="translate(0,0)" fill="none" font-size="10" font-family="sans-serif" text-anchor="end"><path class="domain" stroke="#000" d="M-6,108.5H0.5V0.5H-6"/><g class="tick" opacity="1" transform="translate(0,108.5)"><line stroke="#000" x2="-6"/><text fill="#000" x="-9" dy="0.32em"/></g><g class="tick" opacity="1" transform="translate(0,86.9)"><line stroke="#000" x2="-6"/><text fill="#000" x="-9" dy="0.32em"/></g><g class="tick" opacity="1" transform="translate(0,65.3)"><line stroke="#000" x2="-6"/><text fill="#000" x="-9" dy="0.32em"/></g><g class="tick" opacity="1" transform="translate(0,43.7)"><line stroke="#000" x2="-6"/><text fill="#000" x="-9" dy="0.32em"/></g><g class="tick" opacity="1" transform="translate(0,22.099999999999994)"><line stroke="#000" x2="-6"/><text fill="#000" x="-9" dy="0.32em"/></g><g class="tick" opacity="1" transform="translate(0,0.5)"><line stroke="#000" x2="-6"/><text fill="#000" x="-9" dy="0.32em"/></g></g><path fill="none" stroke="#d95f02" stroke-width="5" d="M0,59.9306358381503L24.64039408866995,26.2196531791907L49.21346469622331,46.19653179190747L73.78653530377667,29.965317919075147L98.35960591133005,0L123,36.832369942196564"/><path fill="none" stroke="#7570b3" stroke-width="5" d="M0,38.28839093126827L24.64039408866995,24.472988130526247L49.21346469622331,20.182386947512583L73.78653530377667,16.433444557332763L98.35960591133005,17.384660312061456L123,0"/></g></svg>